<svg id="translation" xmlns="http://www.w3.org/2000/svg" width="42.423" height="42.423" viewBox="0 0 42.423 42.423">
  <path id="Path_5256" data-name="Path 5256" d="M17.184,23.2a.621.621,0,0,0-.621-.621H2.614a1.373,1.373,0,0,1-1.371-1.371V2.614A1.373,1.373,0,0,1,2.614,1.243h18.6a1.373,1.373,0,0,1,1.371,1.371V16.562a.621.621,0,0,0,1.243,0V2.614A2.617,2.617,0,0,0,21.212,0H2.614A2.617,2.617,0,0,0,0,2.614v18.6a2.617,2.617,0,0,0,2.614,2.614H16.562A.621.621,0,0,0,17.184,23.2Z" transform="translate(0 0)" fill="#FFFFFF"/>
  <path id="Path_5257" data-name="Path 5257" d="M245.664,224.452H240.35a.621.621,0,0,0,0,1.243h5.314a1.373,1.373,0,0,1,1.371,1.371v18.6a1.373,1.373,0,0,1-1.371,1.371h-18.6a1.373,1.373,0,0,1-1.371-1.371v-18.6a1.373,1.373,0,0,1,1.371-1.371h10.627a.621.621,0,0,0,0-1.243H227.066a2.617,2.617,0,0,0-2.614,2.614v18.6a2.617,2.617,0,0,0,2.614,2.614h18.6a2.617,2.617,0,0,0,2.614-2.614v-18.6A2.617,2.617,0,0,0,245.664,224.452Z" transform="translate(-205.854 -205.854)" fill="#FFFFFF"/>
  <path id="Path_5258" data-name="Path 5258" d="M76.706,65.457H71.35V64.75a.621.621,0,0,0-1.243,0v.707H64.75a.621.621,0,1,0,0,1.243H73.9a17.341,17.341,0,0,1-3.177,5.782,17.493,17.493,0,0,1-2.5-4,.621.621,0,0,0-1.134.509,18.729,18.729,0,0,0,2.792,4.431,16.812,16.812,0,0,1-3.465,2.755.621.621,0,1,0,.639,1.066,18.082,18.082,0,0,0,3.662-2.9,18.108,18.108,0,0,0,3.669,2.9.621.621,0,1,0,.639-1.066,16.865,16.865,0,0,1-3.47-2.756,18.684,18.684,0,0,0,2.2-3.224A17.248,17.248,0,0,0,75.2,66.7h1.507a.621.621,0,1,0,0-1.243Z" transform="translate(-58.815 -58.815)" fill="#FFFFFF"/>
  <path id="Path_5259" data-name="Path 5259" d="M309.95,289.133a.889.889,0,0,0-.825-.553h0a.889.889,0,0,0-.825.555l-.006.014L303.8,300.936a.621.621,0,1,0,1.161.442l.966-2.535h6.355l.956,2.534a.621.621,0,0,0,1.163-.439l-4.448-11.788ZM306.4,297.6l2.719-7.139,2.694,7.139Z" transform="translate(-278.594 -264.669)" fill="#FFFFFF"/>
  <path id="Path_5260" data-name="Path 5260" d="M97.806,313.376l-2.657-1.993a.621.621,0,0,0-.746.994l1.165.874H93.448a4.033,4.033,0,0,1-4.028-4.028v-3.985a.621.621,0,0,0-1.243,0v3.985a5.277,5.277,0,0,0,5.271,5.271h2.121l-1.165.874a.621.621,0,0,0,.746.994l2.657-1.993a.621.621,0,0,0,0-.994Z" transform="translate(-80.871 -279.377)" fill="#FFFFFF"/>
  <path id="Path_5261" data-name="Path 5261" d="M304.862,67.24l2.657,1.993a.621.621,0,0,0,.746-.994l-1.165-.874h2.121a4.033,4.033,0,0,1,4.028,4.028v3.985a.621.621,0,1,0,1.243,0V71.392a5.277,5.277,0,0,0-5.271-5.271H307.1l1.165-.874a.621.621,0,0,0-.746-.994l-2.657,1.993a.621.621,0,0,0,0,.994Z" transform="translate(-279.373 -58.815)" fill="#FFFFFF"/>
</svg>
