<svg id="bitcoin" xmlns="http://www.w3.org/2000/svg" width="63.281" height="63.289" viewBox="0 0 63.281 63.289">
  <g id="Group_43008" data-name="Group 43008">
    <path id="Path_109825" data-name="Path 109825" d="M181.168,65.267a31.633,31.633,0,1,1-23.043-38.353A31.636,31.636,0,0,1,181.168,65.267Z" transform="translate(-118.833 -25.968)" fill="#f7931a"/>
    <path id="Path_109826" data-name="Path 109826" d="M249.2,141.09a1.262,1.262,0,0,1-1.589.824c.035.05-2.521-.629-2.521-.629l-1.722,3.97,4.513,1.125c.84.21,1.663.431,2.473.638l-1.435,5.763,3.464.864,1.421-5.7c.946.257,1.865.494,2.764.717l-1.417,5.675,3.468.864,1.435-5.752c5.914,1.119,10.361.668,12.233-4.681,1.508-4.307-.075-6.791-3.187-8.412,2.266-.523,3.973-2.013,4.428-5.092h0c.629-4.206-2.573-6.467-6.952-7.976l1.421-5.7-3.468-.864-1.383,5.548c-.912-.227-1.848-.442-2.779-.654l1.393-5.584-3.466-.864-1.422,5.7c-.755-.172-1.5-.342-2.215-.521l0-.018-4.783-1.194-.923,3.7s2.573.59,2.519.626a1.846,1.846,0,0,1,1.616,2.017Zm16.406,1.285c-1.072,4.307-8.324,1.979-10.675,1.395l1.9-7.635C259.184,136.722,266.723,137.884,265.6,142.376Zm1.073-11.175c-.978,3.918-7.014,1.927-8.972,1.439l1.727-6.925C261.388,126.2,267.694,127.114,266.675,131.2Z" transform="translate(-227.956 -104.124)" fill="#fff"/>
  </g>
</svg>
