<svg id="avalanche-avax-logo" xmlns="http://www.w3.org/2000/svg" width="63.71" height="63.71" viewBox="0 0 63.71 63.71">
  <rect id="Rectangle_5001" data-name="Rectangle 5001" width="39.363" height="35.8" transform="translate(12.152 10.901)" fill="#fff"/>
  <path id="Path_109830" data-name="Path 109830" d="M64.21,32.855A31.855,31.855,0,1,1,32.355,1,31.855,31.855,0,0,1,64.21,32.855ZM23.328,45.532H17.146a4.964,4.964,0,0,1-2.332-.25,1.571,1.571,0,0,1-.712-1.229c-.024-.461.3-1.025.939-2.152L30.306,14.995c.65-1.143.978-1.714,1.393-1.925a1.575,1.575,0,0,1,1.424,0c.415.211.743.783,1.393,1.925l3.138,5.478.016.028A10.275,10.275,0,0,1,38.882,23a4.647,4.647,0,0,1,0,2.176A10.314,10.314,0,0,1,37.662,27.7L29.644,41.877l-.021.036a10.168,10.168,0,0,1-1.56,2.335,4.667,4.667,0,0,1-1.9,1.1A11.185,11.185,0,0,1,23.328,45.532Zm15.612,0H47.8a4.927,4.927,0,0,0,2.356-.258,1.566,1.566,0,0,0,.712-1.236c.022-.447-.291-.988-.906-2.05l-.064-.11-4.437-7.591-.05-.085c-.624-1.054-.938-1.587-1.342-1.793a1.558,1.558,0,0,0-1.416,0c-.407.211-.736.767-1.385,1.886l-4.421,7.591-.015.026c-.647,1.117-.971,1.676-.947,2.134a1.585,1.585,0,0,0,.712,1.236A5.005,5.005,0,0,0,38.94,45.532Z" transform="translate(-0.5 -1)" fill="#e84142" fill-rule="evenodd"/>
</svg>
