<svg id="dogecoin" xmlns="http://www.w3.org/2000/svg" width="63.281" height="63.281" viewBox="0 0 63.281 63.281">
  <path id="Path_56601" data-name="Path 56601" d="M63.281,31.641A31.642,31.642,0,1,1,31.641,0,31.641,31.641,0,0,1,63.281,31.641Z" fill="#bba025"/>
  <path id="Path_56602" data-name="Path 56602" d="M95.287,55.39H63.77V68.167h6.815V94.573H63.77v8.693a33.334,33.334,0,0,0,4.3,4.084H95.287c5.323,0,20.443-3.407,20.443-25.98S100.61,55.39,95.287,55.39ZM91.453,94.573H85.7V68.167h5.75c1.491,0,7.88,2.981,7.88,13.2S92.945,94.573,91.453,94.573Z" transform="translate(-57.253 -49.729)" fill="#f0efeb"/>
</svg>
