<svg id="bnb-bnb-logo" xmlns="http://www.w3.org/2000/svg" width="63.281" height="63.281" viewBox="0 0 63.281 63.281">
  <path id="Path_109831" data-name="Path 109831" d="M31.641,0A31.641,31.641,0,1,1,0,31.641,31.639,31.639,0,0,1,31.641,0Z" fill="#f0b90b" fill-rule="evenodd"/>
  <path id="Path_109832" data-name="Path 109832" d="M526.74,738.065l.023,8.366,7.109,4.183v4.9L522.6,748.9V735.618l4.138,2.447Zm0-8.367v4.875l-4.14-2.449v-4.875l4.14-2.449,4.16,2.449-4.16,2.449Zm10.1-2.449,4.14-2.449,4.16,2.449-4.161,2.449-4.14-2.449Z" transform="translate(-509.351 -706.424)" fill="#fff"/>
  <path id="Path_109833" data-name="Path 109833" d="M803.9,744.7v-4.9l4.14,2.449v4.875L803.9,744.7Zm7.109,7.672,4.14,2.449,4.16-2.449v4.875l-4.16,2.449-4.14-2.449v-4.875Zm14.238-25.12,4.14-2.449,4.16,2.449v4.875l-4.16,2.449V729.7l-4.14-2.449Zm4.14,19.182.023-8.366,4.14-2.449V748.9l-11.269,6.61v-4.9l7.106-4.181Z" transform="translate(-783.519 -706.424)" fill="#fff"/>
  <path id="Path_109834" data-name="Path 109834" d="M1532.94,1321.3l-4.14,2.426v-4.875l4.14-2.449Z" transform="translate(-1490.04 -1283.025)" fill="#fff"/>
  <path id="Path_109835" data-name="Path 109835" d="M826.419,409.9l.023,4.9-7.129,4.183v8.387l-4.14,2.426-4.14-2.426v-8.387l-7.129-4.183v-4.9l4.158-2.449,7.086,4.2,7.129-4.2,4.16,2.449ZM803.9,401.532l11.249-6.632,11.269,6.632-4.14,2.449-7.129-4.2-7.109,4.2-4.14-2.449Z" transform="translate(-783.519 -384.888)" fill="#fff"/>
</svg>
