<svg id="ethereum-2" xmlns="http://www.w3.org/2000/svg" width="39.678" height="64.124" viewBox="0 0 39.678 64.124">
  <path id="Path_56590" data-name="Path 56590" d="M140.987,296.737l-15.816,20.842a1.134,1.134,0,0,1-1.805,0L107.55,296.737a.566.566,0,0,1,.717-.843l15.469,8.242a1.133,1.133,0,0,0,1.054.006l15.48-8.247A.566.566,0,0,1,140.987,296.737Z" transform="translate(-104.429 -253.903)" fill="#6e6f80"/>
  <path id="Path_56591" data-name="Path 56591" d="M242.975,296.737l-15.823,20.851a.506.506,0,0,1-.9-.326V304.724a.507.507,0,0,1,.269-.447l15.733-8.382A.566.566,0,0,1,242.975,296.737Z" transform="translate(-206.417 -253.904)" fill="#585966"/>
  <path id="Path_56592" data-name="Path 56592" d="M133.672,27.286l-17.056,8.963a1.131,1.131,0,0,1-1.054,0L98.506,27.286a1.135,1.135,0,0,1-.411-1.64L115.151.5a1.133,1.133,0,0,1,1.875,0l17.057,25.149a1.135,1.135,0,0,1-.411,1.64Z" transform="translate(-96.25 -0.002)" fill="#6e6f80"/>
  <path id="Path_56593" data-name="Path 56593" d="M243.839,27.8l-17.061,8.965a.362.362,0,0,1-.522-.328V.973a.362.362,0,0,1,.514-.332,1.121,1.121,0,0,1,.422.374L244.25,26.163a1.135,1.135,0,0,1-.411,1.64Z" transform="translate(-206.417 -0.518)" fill="#585966"/>
  <path id="Path_56594" data-name="Path 56594" d="M105.566,242.347l-18.705-9.83a1.134,1.134,0,1,1,1.055-2.007l18.178,9.553,18.178-9.553a1.134,1.134,0,1,1,1.055,2.007l-18.705,9.83A1.134,1.134,0,0,1,105.566,242.347Z" transform="translate(-86.254 -197.733)" fill="#6e6f80"/>
  <g id="Group_42732" data-name="Group 42732" transform="translate(3.001 0)">
    <path id="Path_56595" data-name="Path 56595" d="M135.23.1a.364.364,0,0,0-.476.35V19.337a2.281,2.281,0,0,1-.846,1.767,15.928,15.928,0,0,1-12.273,3.227,2.265,2.265,0,0,1-1.594-3.523L133.815.5A1.132,1.132,0,0,1,135.23.1Z" transform="translate(-117.915 0)" fill="#828396"/>
    <path id="Path_56596" data-name="Path 56596" d="M122.147,304.376a6.594,6.594,0,0,1-4.739,4.276,1.121,1.121,0,0,1-1.138-.424l-8.72-11.491a.566.566,0,0,1,.717-.843L121.608,303A1.131,1.131,0,0,1,122.147,304.376Z" transform="translate(-107.429 -253.903)" fill="#828396"/>
  </g>
</svg>
