<svg id="tether" xmlns="http://www.w3.org/2000/svg" width="63.281" height="63.281" viewBox="0 0 63.281 63.281">
  <path id="Path_56597" data-name="Path 56597" d="M63.281,31.641A31.641,31.641,0,1,1,8.682,9.869q.467-.494.956-.966a31.639,31.639,0,0,1,44.005,0c.134.129.267.261.4.393A31.538,31.538,0,0,1,63.281,31.641Z" transform="translate(0 0)" fill="#1ba27a"/>
  <path id="Path_56598" data-name="Path 56598" d="M50.643,90.387V83.206H67.361V72.035H21.687V83.206H38.4v7.209c-13.5.7-23.619,3.56-23.619,6.986S24.9,103.687,38.4,104.386v22.38a31.8,31.8,0,0,0,12.239.111V104.413c13.784-.647,24.181-3.541,24.181-7.013S64.427,91.034,50.643,90.387ZM44.8,101.814c-15.062,0-27.273-2.3-27.273-5.127,0-2.417,8.9-4.444,20.872-4.985v8.211a42.339,42.339,0,0,0,12.239,0V91.677c12.256.5,21.433,2.554,21.433,5.01C72.076,99.519,59.865,101.814,44.8,101.814Z" transform="translate(-13.164 -64.135)" fill="#f0efeb"/>
</svg>
