<svg id="support" xmlns="http://www.w3.org/2000/svg" width="43.14" height="42.97" viewBox="0 0 43.14 42.97">
  <g id="Group_7581" data-name="Group 7581">
    <path id="Path_5299" data-name="Path 5299" d="M39.4,18.866H38.217V17.657a16.647,16.647,0,0,0-33.294,0v1.209H3.742A3.746,3.746,0,0,0,0,22.608v7.251A3.746,3.746,0,0,0,3.742,33.6H4.988A3.212,3.212,0,0,0,8.13,36.164h1.4a3.21,3.21,0,0,0,3.207-3.207V29.327a.641.641,0,1,0-1.281,0v3.629a1.928,1.928,0,0,1-1.925,1.925H8.13A1.928,1.928,0,0,1,6.2,32.957V19.51A1.928,1.928,0,0,1,8.13,17.584h1.4a1.928,1.928,0,0,1,1.925,1.925v7.682a.641.641,0,0,0,1.281,0V19.51A3.21,3.21,0,0,0,9.532,16.3H8.13a3.19,3.19,0,0,0-1.908.631A15.283,15.283,0,0,1,9.354,8.348,2.132,2.132,0,0,0,11.315,9.6h.009a5.556,5.556,0,0,0,3.3-1.1A11.763,11.763,0,0,1,25.9,7.05a.641.641,0,0,0,.473-1.191,13.044,13.044,0,0,0-12.506,1.6,4.283,4.283,0,0,1-2.546.851h-.009a.871.871,0,0,1-.819-.548.861.861,0,0,1,.1-.857,15.338,15.338,0,0,1,21.938,0,.862.862,0,0,1,.1.857.874.874,0,0,1-.826.548,4.283,4.283,0,0,1-2.546-.851c-.334-.246-.684-.477-1.04-.69a.641.641,0,1,0-.656,1.1c.321.191.636.4.938.622a5.561,5.561,0,0,0,3.312,1.1,2.132,2.132,0,0,0,1.961-1.248,15.282,15.282,0,0,1,3.133,8.587A3.19,3.19,0,0,0,35.01,16.3h-1.4A3.21,3.21,0,0,0,30.4,19.51V32.957a3.21,3.21,0,0,0,3.207,3.207h1.4a3.19,3.19,0,0,0,1.925-.644v.1A7.086,7.086,0,0,1,29.857,42.7H26.837a2.648,2.648,0,0,0-2.268-4.018h-2a2.65,2.65,0,0,0,0,5.3h7.293a8.369,8.369,0,0,0,8.359-8.359V33.6H39.4a3.746,3.746,0,0,0,3.742-3.742V22.608A3.746,3.746,0,0,0,39.4,18.866ZM4.923,22.073V32.319H3.742a2.463,2.463,0,0,1-2.461-2.461V22.608a2.464,2.464,0,0,1,2.461-2.461H4.923v1.926ZM36.936,32.957a1.928,1.928,0,0,1-1.925,1.925h-1.4a1.928,1.928,0,0,1-1.925-1.925V19.51a1.928,1.928,0,0,1,1.925-1.925h1.4a1.928,1.928,0,0,1,1.925,1.925ZM24.569,42.7h-2a1.368,1.368,0,0,1,0-2.736h2a1.368,1.368,0,0,1,0,2.736Zm17.29-12.84A2.464,2.464,0,0,1,39.4,32.319H38.217V20.147H39.4a2.464,2.464,0,0,1,2.461,2.461Z" transform="translate(0 -1.01)" fill="#FFFFFF"/>
  </g>
</svg>
