<svg id="_020-Litecoin" data-name="020-Litecoin" xmlns="http://www.w3.org/2000/svg" width="63.281" height="63.281" viewBox="0 0 63.281 63.281">
  <circle id="Ellipse_1149" data-name="Ellipse 1149" cx="30.789" cy="30.789" r="30.789" transform="translate(0.852 0.725)" fill="#ffeb3b"/>
  <circle id="Ellipse_1150" data-name="Ellipse 1150" cx="26.57" cy="26.57" r="26.57" transform="translate(5.071 4.943)" fill="#fdd835"/>
  <path id="Path_56577" data-name="Path 56577" d="M33.641,2A31.641,31.641,0,1,0,65.281,33.641,31.641,31.641,0,0,0,33.641,2Zm0,56.953A25.312,25.312,0,1,1,58.953,33.641,25.312,25.312,0,0,1,33.641,58.953Zm24.249-38.1L59.719,19.8a29.34,29.34,0,0,1,2.156,5.182l-2.038.545a27.2,27.2,0,0,0-1.947-4.672Zm-1.055-1.825a27.527,27.527,0,0,0-3.082-4.008l1.491-1.491a29.7,29.7,0,0,1,3.418,4.447Zm-4.573-5.5a27.527,27.527,0,0,0-4.008-3.082l1.055-1.828a29.7,29.7,0,0,1,4.447,3.418ZM46.423,9.391a27.2,27.2,0,0,0-4.671-1.947L42.3,5.407a29.34,29.34,0,0,1,5.182,2.156ZM39.714,6.9A27.4,27.4,0,0,0,34.7,6.245V4.136a29.464,29.464,0,0,1,5.563.731Zm-7.128-.659a27.4,27.4,0,0,0-5.018.659l-.545-2.038a29.464,29.464,0,0,1,5.563-.731Zm-7.057,1.2a27.2,27.2,0,0,0-4.671,1.947L19.8,7.562a29.341,29.341,0,0,1,5.181-2.156Zm-6.5,3.006a27.527,27.527,0,0,0-4.008,3.082l-1.493-1.491a29.7,29.7,0,0,1,4.447-3.418Zm-5.5,4.573a27.527,27.527,0,0,0-3.082,4.008L8.622,17.976a29.7,29.7,0,0,1,3.418-4.447ZM9.391,20.858a27.2,27.2,0,0,0-1.947,4.671l-2.038-.545A29.34,29.34,0,0,1,7.562,19.8ZM6.9,27.568a27.4,27.4,0,0,0-.659,5.018H4.136a29.464,29.464,0,0,1,.731-5.563ZM6.245,34.7A27.4,27.4,0,0,0,6.9,39.714l-2.038.545A29.464,29.464,0,0,1,4.136,34.7Zm1.2,7.057a27.2,27.2,0,0,0,1.947,4.671L7.562,47.478A29.34,29.34,0,0,1,5.407,42.3Zm3.006,6.5a27.527,27.527,0,0,0,3.082,4.008l-1.491,1.493A29.7,29.7,0,0,1,8.622,49.3Zm4.573,5.5a27.528,27.528,0,0,0,4.008,3.082l-1.055,1.828a29.7,29.7,0,0,1-4.447-3.418Zm5.835,4.141a27.2,27.2,0,0,0,4.671,1.947l-.545,2.038A29.341,29.341,0,0,1,19.8,59.719Zm6.71,2.487a27.4,27.4,0,0,0,5.018.659v2.109a29.464,29.464,0,0,1-5.563-.731Zm7.128.659a27.4,27.4,0,0,0,5.018-.659l.545,2.038a29.464,29.464,0,0,1-5.563.731Zm7.057-1.2a27.2,27.2,0,0,0,4.671-1.947l1.055,1.829A29.339,29.339,0,0,1,42.3,61.875Zm6.5-3.006a27.528,27.528,0,0,0,4.008-3.082l1.491,1.491A29.7,29.7,0,0,1,49.3,58.659Zm5.5-4.573a27.527,27.527,0,0,0,3.082-4.008L58.659,49.3a29.7,29.7,0,0,1-3.418,4.447Zm4.141-5.835a27.2,27.2,0,0,0,1.947-4.671l2.038.545a29.34,29.34,0,0,1-2.156,5.182Zm2.487-6.71a27.4,27.4,0,0,0,.659-5.018h2.109a29.464,29.464,0,0,1-.731,5.563Zm.659-7.128a27.4,27.4,0,0,0-.659-5.018l2.038-.545a29.464,29.464,0,0,1,.731,5.563Z" transform="translate(-2 -2)" fill="#fbc02e"/>
  <path id="Path_56578" data-name="Path 56578" d="M29.275,38.414,32.059,27.74l4.8-.9,1.213-4.647-4.8.9L35.9,13h-6.63L26.121,24.434l-4.836.907L20,30l4.835-.907-4.4,15.949H41.429l2.21-6.629Z" transform="translate(0.436 0.216)" fill="#fff59d"/>
</svg>
