<svg id="refresh" xmlns="http://www.w3.org/2000/svg" width="41.697" height="41.698" viewBox="0 0 41.697 41.698">
  <path id="Path_5297" data-name="Path 5297" d="M88.523,59.99,82.711,59.8l5.62-5.62Zm-36,11.344h-1.6A20.846,20.846,0,0,1,85.225,55.846l-1.142,1.142A19.279,19.279,0,0,0,52.519,71.334Z" transform="translate(-50.917 -50.912)" fill="#FFFFFF"/>
  <path id="Path_5298" data-name="Path 5298" d="M91.164,272.908l5.812.192-5.62,5.62Zm31.5,3.08a20.93,20.93,0,0,1-28.261,1.118l1.131-1.132A19.253,19.253,0,0,0,127.168,261.8h1.6a20.656,20.656,0,0,1-6.1,14.188Z" transform="translate(-87.073 -240.361)" fill="#FFFFFF"/>
</svg>
