<svg id="usd-coin-usdc-logo" xmlns="http://www.w3.org/2000/svg" width="64.031" height="64.031" viewBox="0 0 64.031 64.031">
  <path id="Path_109827" data-name="Path 109827" d="M32.015,64.031A32.015,32.015,0,1,0,0,32.015,31.938,31.938,0,0,0,32.015,64.031Z" fill="#2775ca"/>
  <path id="Path_109828" data-name="Path 109828" d="M734.545,529.14c0-4.669-2.8-6.27-8.4-6.936-4-.534-4.8-1.6-4.8-3.469s1.334-3.068,4-3.068c2.4,0,3.735.8,4.4,2.8a1,1,0,0,0,.934.667h2.134a.912.912,0,0,0,.934-.934v-.133a6.664,6.664,0,0,0-6-5.469v-3.2c0-.534-.4-.934-1.067-1.067h-2c-.534,0-.934.4-1.068,1.067v3.068c-4,.534-6.536,3.2-6.536,6.537,0,4.4,2.668,6.136,8.271,6.8,3.735.667,4.936,1.467,4.936,3.6s-1.868,3.6-4.4,3.6c-3.469,0-4.669-1.468-5.069-3.469a.974.974,0,0,0-.934-.8H717.6a.912.912,0,0,0-.933.934v.133c.533,3.335,2.668,5.736,7.07,6.4v3.2c0,.533.4.934,1.067,1.067h2c.534,0,.934-.4,1.067-1.067v-3.2C731.877,535.543,734.545,532.742,734.545,529.14Z" transform="translate(-693.726 -492.056)" fill="#fff"/>
  <path id="Path_109829" data-name="Path 109829" d="M265.239,333.423a19.962,19.962,0,0,1,0-37.484,1.339,1.339,0,0,0,.8-1.334v-1.867a1.014,1.014,0,0,0-.8-1.067.8.8,0,0,0-.534.133,24.005,24.005,0,0,0,0,45.755.811.811,0,0,0,1.2-.534c.133-.133.133-.267.133-.533v-1.868A1.777,1.777,0,0,0,265.239,333.423Zm14.14-41.62a.811.811,0,0,0-1.2.534c-.133.133-.133.267-.133.534v1.867a1.769,1.769,0,0,0,.8,1.334,19.962,19.962,0,0,1,0,37.484,1.339,1.339,0,0,0-.8,1.334v1.867a1.014,1.014,0,0,0,.8,1.067.8.8,0,0,0,.534-.133,24.108,24.108,0,0,0,0-45.889Z" transform="translate(-240.027 -282.332)" fill="#fff"/>
</svg>
