<svg xmlns="http://www.w3.org/2000/svg" width="46.33" height="53.194" viewBox="0 0 46.33 53.194">
  <g id="Group_76854" data-name="Group 76854" transform="translate(-134.835 -11.404)">
    <g id="Polygon_11" data-name="Polygon 11" transform="translate(134.835 64.598) rotate(-90)" fill="none">
      <path d="M34.106,0a10,10,0,0,1,8.673,5.021l7.558,13.165a10,10,0,0,1,0,9.957L42.778,41.309a10,10,0,0,1-8.673,5.021H19.088a10,10,0,0,1-8.673-5.021L2.858,28.144a10,10,0,0,1,0-9.957L10.416,5.021A10,10,0,0,1,19.088,0Z" stroke="none"/>
      <path d="M 19.08844375610352 1.5 C 16.05279541015625 1.5 13.22813415527344 3.135452270507812 11.7167854309082 5.768119812011719 L 4.159004211425781 18.93328094482422 C 2.660495758056641 21.54360198974609 2.660484313964844 24.78672027587891 4.159004211425781 27.39703178405762 L 11.7167854309082 40.56219100952148 C 13.22813415527344 43.19486999511719 16.05278396606445 44.830322265625 19.08843612670898 44.830322265625 L 34.10564422607422 44.830322265625 C 37.14128494262695 44.830322265625 39.96593475341797 43.19486999511719 41.4772834777832 40.56220245361328 L 49.03506469726562 27.39703178405762 C 50.53357315063477 24.78672027587891 50.53357315063477 21.54360198974609 49.03506469726562 18.93328094482422 L 41.4772834777832 5.768119812011719 C 39.96593475341797 3.135452270507812 37.14128494262695 1.5 34.10563659667969 1.5 L 19.08844375610352 1.5 M 19.08844375610352 0 L 34.10563659667969 0 C 37.68708419799805 0 40.99507522583008 1.915302276611328 42.77816390991211 5.021320343017578 L 50.33594512939453 18.18648147583008 C 52.10589599609375 21.2696418762207 52.10589599609375 25.0606803894043 50.33594512939453 28.14383125305176 L 42.77816390991211 41.30900192260742 C 40.99507522583008 44.41501998901367 37.68708419799805 46.330322265625 34.10564422607422 46.330322265625 L 19.08843612670898 46.330322265625 C 15.50698471069336 46.330322265625 12.1989860534668 44.41501235961914 10.4159049987793 41.30899047851562 L 2.858123779296875 28.14383125305176 C 1.088165283203125 25.0606803894043 1.088165283203125 21.2696418762207 2.858123779296875 18.18648147583008 L 10.4159049987793 5.021320343017578 C 12.19899368286133 1.915302276611328 15.50698471069336 0 19.08844375610352 0 Z" stroke="none" fill="#FFFFFF"/>
    </g>
    <g id="Group_43064" data-name="Group 43064">
      <rect id="Rectangle_3086" data-name="Rectangle 3086" width="13" height="2.2" transform="translate(151.335 32.098)" fill="#FFFFFF"/>
      <rect id="Rectangle_3087" data-name="Rectangle 3087" width="21" height="2.2" transform="translate(147.335 42.098)" fill="#FFFFFF"/>
      <rect id="Rectangle_3088" data-name="Rectangle 3088" width="17" height="2.2" transform="translate(149.335 37.098)" fill="#FFFFFF"/>
    </g>
  </g>
</svg>
