<svg id="Layer_1-2" xmlns="http://www.w3.org/2000/svg" width="68.483" height="63.281" viewBox="0 0 68.483 63.281">
  <path id="Path_109836" data-name="Path 109836" d="M102.766,152.464a4.613,4.613,0,0,0,4.346,4.858h.274a4.611,4.611,0,1,0-4.62-4.858Z" transform="translate(-83.991 -121.052)" fill="#0033ad"/>
  <path id="Path_109837" data-name="Path 109837" d="M1.564,165.485a1.491,1.491,0,1,0,1.406,1.57,1.479,1.479,0,0,0-1.406-1.57Z" transform="translate(0.008 -135.26)" fill="#0033ad"/>
  <path id="Path_109838" data-name="Path 109838" d="M91.5,12.762A1.495,1.495,0,1,0,90.154,10.1,1.495,1.495,0,0,0,91.5,12.762Z" transform="translate(-73.023 -8.121)" fill="#0033ad"/>
  <path id="Path_109839" data-name="Path 109839" d="M111.9,50.621a2.3,2.3,0,1,0-3.086-1.023A2.3,2.3,0,0,0,111.9,50.621Z" transform="translate(-88.742 -37.817)" fill="#0033ad"/>
  <path id="Path_109840" data-name="Path 109840" d="M36.739,85.2a1.9,1.9,0,1,0-.548-2.63h0A1.89,1.89,0,0,0,36.739,85.2Z" transform="translate(-29.323 -66.794)" fill="#0033ad"/>
  <path id="Path_109841" data-name="Path 109841" d="M45.011,160.983a2.3,2.3,0,1,0,2.173,2.429h0A2.306,2.306,0,0,0,45.011,160.983Z" transform="translate(-34.802 -131.579)" fill="#0033ad"/>
  <path id="Path_109842" data-name="Path 109842" d="M37.326,244.786a1.9,1.9,0,1,0,2.557.84h0a1.91,1.91,0,0,0-2.557-.84Z" transform="translate(-29.655 -199.915)" fill="#0033ad"/>
  <path id="Path_109843" data-name="Path 109843" d="M85.493,112.636a2.7,2.7,0,1,0-.785-3.744,2.688,2.688,0,0,0,.785,3.744Z" transform="translate(-68.873 -87.999)" fill="#0033ad"/>
  <path id="Path_109844" data-name="Path 109844" d="M241.816,50.168a2.307,2.307,0,1,0-.657-3.2h0a2.282,2.282,0,0,0,.657,3.2Z" transform="translate(-196.8 -37.547)" fill="#0033ad"/>
  <path id="Path_109845" data-name="Path 109845" d="M269.3,12.3a1.492,1.492,0,1,0-.438-2.082A1.538,1.538,0,0,0,269.3,12.3Z" transform="translate(-219.57 -7.806)" fill="#0033ad"/>
  <path id="Path_109846" data-name="Path 109846" d="M226.623,147.866a4.609,4.609,0,1,0-.511,9.2h.256a4.606,4.606,0,0,0,.256-9.2Z" transform="translate(-181.26 -120.854)" fill="#0033ad"/>
  <path id="Path_109847" data-name="Path 109847" d="M132.874,103.083a4.614,4.614,0,1,0,2.045-6.209,4.621,4.621,0,0,0-2.045,6.209Z" transform="translate(-108.202 -78.775)" fill="#0033ad"/>
  <path id="Path_109848" data-name="Path 109848" d="M320.6,84.748a1.9,1.9,0,1,0-2.575-.84,1.931,1.931,0,0,0,2.575.84Z" transform="translate(-259.785 -66.337)" fill="#0033ad"/>
  <path id="Path_109849" data-name="Path 109849" d="M262.308,107.539a2.707,2.707,0,1,0,3.634,1.205A2.708,2.708,0,0,0,262.308,107.539Z" transform="translate(-213.183 -87.667)" fill="#0033ad"/>
  <path id="Path_109850" data-name="Path 109850" d="M178.478,3.786A1.924,1.924,0,0,0,180.487,2a1.9,1.9,0,0,0-3.8-.237,1.93,1.93,0,0,0,1.79,2.027Z" transform="translate(-144.419 0.015)" fill="#0033ad"/>
  <path id="Path_109851" data-name="Path 109851" d="M174.942,61.883a2.707,2.707,0,1,0-2.557-2.849,2.689,2.689,0,0,0,2.557,2.849Z" transform="translate(-140.901 -46.157)" fill="#0033ad"/>
  <path id="Path_109852" data-name="Path 109852" d="M88.437,214.742a2.707,2.707,0,1,0-3.634-1.205A2.708,2.708,0,0,0,88.437,214.742Z" transform="translate(-69.078 -171.332)" fill="#0033ad"/>
  <path id="Path_109853" data-name="Path 109853" d="M192.635,98.482a4.61,4.61,0,1,0,3.853-2.082A4.6,4.6,0,0,0,192.635,98.482Z" transform="translate(-156.841 -78.793)" fill="#0033ad"/>
  <path id="Path_109854" data-name="Path 109854" d="M200.81,202.02a4.61,4.61,0,1,0-2.045,6.191h0a4.588,4.588,0,0,0,2.064-6.154C200.828,202.038,200.828,202.038,200.81,202.02Z" transform="translate(-157 -163.047)" fill="#0033ad"/>
  <path id="Path_109855" data-name="Path 109855" d="M265.251,209.607a2.7,2.7,0,1,0,.785,3.744,2.688,2.688,0,0,0-.785-3.744Z" transform="translate(-213.387 -170.964)" fill="#0033ad"/>
  <path id="Path_109856" data-name="Path 109856" d="M311.785,162.811a2.3,2.3,0,1,0-2.429,2.173h0A2.318,2.318,0,0,0,311.785,162.811Z" transform="translate(-251.082 -131.089)" fill="#0033ad"/>
  <path id="Path_109857" data-name="Path 109857" d="M360.264,164.685a1.491,1.491,0,1,0,1.406,1.57A1.5,1.5,0,0,0,360.264,164.685Z" transform="translate(-293.188 -134.606)" fill="#0033ad"/>
  <path id="Path_109858" data-name="Path 109858" d="M321.257,244.327a1.9,1.9,0,1,0,.548,2.63,1.89,1.89,0,0,0-.548-2.63Z" transform="translate(-260.189 -199.456)" fill="#0033ad"/>
  <path id="Path_109859" data-name="Path 109859" d="M92.262,320.8a1.489,1.489,0,1,0,.42,2.064h0A1.466,1.466,0,0,0,92.262,320.8Z" transform="translate(-73.525 -262.013)" fill="#0033ad"/>
  <path id="Path_109860" data-name="Path 109860" d="M270.154,320.362a1.495,1.495,0,0,0,1.351,2.666,1.495,1.495,0,0,0-1.351-2.666Z" transform="translate(-220.152 -261.722)" fill="#0033ad"/>
  <path id="Path_109861" data-name="Path 109861" d="M141.023,206.726a4.617,4.617,0,1,0-6.391,1.333,4.632,4.632,0,0,0,6.391-1.333Z" transform="translate(-108.334 -163.133)" fill="#0033ad"/>
  <path id="Path_109862" data-name="Path 109862" d="M112.511,275.715a2.307,2.307,0,1,0,.657,3.2h0A2.285,2.285,0,0,0,112.511,275.715Z" transform="translate(-89.044 -225.055)" fill="#0033ad"/>
  <path id="Path_109863" data-name="Path 109863" d="M178.389,325.688a1.9,1.9,0,1,0,1.79,2.027,1.924,1.924,0,0,0-1.79-2.027Z" transform="translate(-144.165 -266.208)" fill="#0033ad"/>
  <path id="Path_109864" data-name="Path 109864" d="M174.726,260.377a2.707,2.707,0,1,0,2.557,2.849,2.689,2.689,0,0,0-2.557-2.849Z" transform="translate(-140.484 -212.822)" fill="#0033ad"/>
  <path id="Path_109865" data-name="Path 109865" d="M242.564,275.277a2.307,2.307,0,1,0,3.123,1.023,2.307,2.307,0,0,0-3.123-1.023Z" transform="translate(-197.238 -224.799)" fill="#0033ad"/>
</svg>
