<svg id="logo" xmlns="http://www.w3.org/2000/svg" width="109.557" height="42.811" viewBox="0 0 109.557 42.811">
  <path id="Path_109818" data-name="Path 109818" d="M10.4,13.279a10.575,10.575,0,0,0,0,21.147,10.058,10.058,0,0,0,6.379-1.806,2.206,2.206,0,0,0,.991-2.777,1.969,1.969,0,0,0-2.73-.971A8.054,8.054,0,0,1,10.4,30.261a6.176,6.176,0,0,1-2.09-.356A6.533,6.533,0,0,1,5.2,27.447a6.748,6.748,0,0,1,.121-7.36,6.61,6.61,0,0,1,3.129-2.31,6.113,6.113,0,0,1,1.957-.319,6.063,6.063,0,0,1,6,4.3H9.17A2.039,2.039,0,0,0,7.152,23.81v.037a2.028,2.028,0,0,0,2.018,2.04c3.2.012,6.307.012,9.557.025a2.052,2.052,0,0,0,2.066-2.064A10.275,10.275,0,0,0,10.4,13.279Z" transform="translate(0 -2.871)" fill="#1e1e1e"/>
  <path id="Path_109819" data-name="Path 109819" d="M48.415,13.279a10.581,10.581,0,0,0,0,21.159,10.058,10.058,0,0,0,6.379-1.806,2.206,2.206,0,0,0,.991-2.777,1.969,1.969,0,0,0-2.73-.971,8.054,8.054,0,0,1-4.639,1.388,6.178,6.178,0,0,1-2.09-.356,6.533,6.533,0,0,1-3.117-2.458,6.748,6.748,0,0,1,.121-7.36,6.61,6.61,0,0,1,3.129-2.31A6.308,6.308,0,0,1,54.42,21.77H47.195a2.039,2.039,0,0,0-2.018,2.052v.037a2.028,2.028,0,0,0,2.018,2.04c3.2.012,6.307.012,9.557.025a2.052,2.052,0,0,0,2.066-2.064A10.281,10.281,0,0,0,48.415,13.279Z" transform="translate(-8.219 -2.871)" fill="#1e1e1e"/>
  <path id="Path_109820" data-name="Path 109820" d="M29.751,29.491V2.064a2.048,2.048,0,1,1,4.1,0V29.491a2.049,2.049,0,1,1-4.1,0Z" transform="translate(-6.433)" fill="#1e1e1e"/>
  <path id="Path_109821" data-name="Path 109821" d="M109.97,15.39a2.083,2.083,0,0,1-2.066,2.1,6.345,6.345,0,0,0-6.295,6.4v8.479a2.048,2.048,0,1,1-4.1,0V23.906a10.492,10.492,0,0,1,10.4-10.58A2.057,2.057,0,0,1,109.97,15.39Z" transform="translate(-21.085 -2.881)" fill="#1e1e1e"/>
  <path id="Path_109822" data-name="Path 109822" d="M113.252,23.843a10.4,10.4,0,1,1,10.391,10.58A10.49,10.49,0,0,1,113.252,23.843Zm4.1,0a6.3,6.3,0,1,0,6.295-6.4A6.368,6.368,0,0,0,117.348,23.843Z" transform="translate(-24.487 -2.868)" fill="#1e1e1e"/>
  <path id="Path_109823" data-name="Path 109823" d="M78.762,52.249A10.6,10.6,0,0,1,69.351,46.5a1.947,1.947,0,0,1,.785-2.617,1.883,1.883,0,0,1,2.573.8,6.8,6.8,0,0,0,12.082.049,1.892,1.892,0,0,1,2.585-.786,1.961,1.961,0,0,1,.773,2.63A10.644,10.644,0,0,1,78.762,52.249Z" transform="translate(-14.947 -9.439)" fill="#00aff5"/>
  <path id="Path_109824" data-name="Path 109824" d="M88.422,16.04a2.792,2.792,0,0,0,0-3.908,2.7,2.7,0,0,0-3.842,0l-1.667,1.7a10.182,10.182,0,0,0-4.361-.971,10.575,10.575,0,1,0,10.4,10.58A10.705,10.705,0,0,0,87.1,17.4ZM78.539,29.827a6.4,6.4,0,1,1,6.295-6.4A6.368,6.368,0,0,1,78.539,29.827Z" transform="translate(-14.735 -2.45)" fill="#1e1e1e"/>
</svg>
