<svg xmlns="http://www.w3.org/2000/svg" xmlns:xlink="http://www.w3.org/1999/xlink" width="42.363" height="37.667" viewBox="0 0 42.363 37.667">
  <defs>
    <linearGradient id="linear-gradient" x1="0.436" y1="-0.199" x2="0.589" y2="1.204" gradientUnits="objectBoundingBox">
      <stop offset="0" stop-color="#ff7044"/>
      <stop offset="1" stop-color="#f82814"/>
    </linearGradient>
    <linearGradient id="linear-gradient-2" x1="0.337" y1="0.201" x2="0.76" y2="1.076" xlink:href="#linear-gradient"/>
    <linearGradient id="linear-gradient-3" x1="0.5" y1="0.5" x2="0.5" y2="0.09" gradientUnits="objectBoundingBox">
      <stop offset="0" stop-color="#f82814" stop-opacity="0"/>
      <stop offset="1" stop-color="#c0272d"/>
    </linearGradient>
    <linearGradient id="linear-gradient-4" x1="0.51" y1="0.5" x2="0.1" y2="0.5" xlink:href="#linear-gradient-3"/>
    <linearGradient id="linear-gradient-5" x1="-0.16" y1="0.478" x2="1.462" y2="0.532" gradientUnits="objectBoundingBox">
      <stop offset="0" stop-color="#ffd945"/>
      <stop offset="0.304" stop-color="#ffcd3e"/>
      <stop offset="0.856" stop-color="#ffad2b"/>
      <stop offset="1" stop-color="#ffa325"/>
    </linearGradient>
    <linearGradient id="linear-gradient-6" x1="0.467" y1="-0.103" x2="0.554" y2="1.502" xlink:href="#linear-gradient-5"/>
    <linearGradient id="linear-gradient-7" x1="0.346" y1="0.328" x2="0.856" y2="0.899" xlink:href="#linear-gradient-5"/>
    <linearGradient id="linear-gradient-8" x1="0.52" y1="0.287" x2="0.243" y2="-0.068" gradientUnits="objectBoundingBox">
      <stop offset="0" stop-color="#f35227" stop-opacity="0"/>
      <stop offset="1" stop-color="#f35227"/>
    </linearGradient>
    <linearGradient id="linear-gradient-9" x1="0.739" y1="0.516" x2="0.397" y2="0.092" xlink:href="#linear-gradient-3"/>
    <linearGradient id="linear-gradient-10" x1="0.542" y1="0.355" x2="0.417" y2="0.814" xlink:href="#linear-gradient-5"/>
    <linearGradient id="linear-gradient-11" x1="0.38" y1="0.382" x2="0.683" y2="0.774" xlink:href="#linear-gradient-5"/>
    <linearGradient id="linear-gradient-12" x1="0.501" y1="0.478" x2="0.494" y2="0.077" xlink:href="#linear-gradient-8"/>
    <linearGradient id="linear-gradient-13" x1="0.395" y1="0.146" x2="0.598" y2="0.832" xlink:href="#linear-gradient-5"/>
    <linearGradient id="linear-gradient-14" x1="-10.19" y1="-3.658" x2="-10.657" y2="-4.147" xlink:href="#linear-gradient-8"/>
    <linearGradient id="linear-gradient-15" x1="0.518" y1="0.133" x2="0.482" y2="0.876" xlink:href="#linear-gradient-5"/>
    <linearGradient id="linear-gradient-16" x1="-1.624" y1="-3.726" x2="-2.091" y2="-4.214" xlink:href="#linear-gradient-8"/>
    <linearGradient id="linear-gradient-17" x1="-34.392" y1="-14.362" x2="-34.35" y2="-13.557" xlink:href="#linear-gradient-5"/>
    <linearGradient id="linear-gradient-18" x1="-41.29" y1="-16.83" x2="-41.29" y2="-17.921" gradientUnits="objectBoundingBox">
      <stop offset="0" stop-color="#ffd945" stop-opacity="0"/>
      <stop offset="1" stop-color="#fbed21"/>
    </linearGradient>
    <linearGradient id="linear-gradient-19" x1="-35.963" y1="6.021" x2="-35.235" y2="4.676" xlink:href="#linear-gradient-8"/>
  </defs>
  <g id="gifts" transform="translate(-83.591 -5.112)">
    <g id="Group_10173" data-name="Group 10173" transform="translate(87.922 5.112)">
      <path id="Path_18844" data-name="Path 18844" d="M152.911,239.16l-17.279-.246-16.886.246V244.9a2.875,2.875,0,0,0,2.875,2.875h28.414a2.875,2.875,0,0,0,2.875-2.875V239.16Z" transform="translate(-118.746 -210.113)" fill="url(#linear-gradient)"/>
      <path id="Path_18845" data-name="Path 18845" d="M152.911,34.16H118.746V23.7s.254-17.063.675-17.563a2.869,2.869,0,0,1,2.2-1.025h28.414a2.869,2.869,0,0,1,2.2,1.019c.424.5.679,17.577.679,17.577V34.16Z" transform="translate(-118.746 -5.112)" fill="url(#linear-gradient-2)"/>
    </g>
    <path id="Path_18846" data-name="Path 18846" d="M152.541,140.088H119.116l-.37,1.955v10.465h34.165V142.054Z" transform="translate(-30.824 -118.349)" fill="url(#linear-gradient-3)"/>
    <path id="Path_18847" data-name="Path 18847" d="M278.191,5.113H267.829l-2.922.739V42.409l2.922.37h10.362a2.875,2.875,0,0,0,2.875-2.875V23.685s-.255-17.049-.677-17.55a2.869,2.869,0,0,0-2.2-1.022Z" transform="translate(-158.98 -0.001)" fill="url(#linear-gradient-4)"/>
    <g id="Group_10174" data-name="Group 10174" transform="translate(100.694 5.112)">
      <path id="Path_18848" data-name="Path 18848" d="M222.429,5.113h8.157V42.779h-8.157Z" transform="translate(-222.429 -5.113)" fill="url(#linear-gradient-5)"/>
    </g>
    <path id="Path_18849" data-name="Path 18849" d="M118.746,89.906h34.165v8.157H118.746Z" transform="translate(-30.824 -74.349)" fill="url(#linear-gradient-6)"/>
    <path id="Path_18850" data-name="Path 18850" d="M222.429,240.914h8.157v8.618h-8.157Z" transform="translate(-121.735 -206.754)" fill="url(#linear-gradient-7)"/>
    <path id="Path_18851" data-name="Path 18851" d="M149.336,57.289V49.132H136.1v-5.6a9.667,9.667,0,0,0-.836,1.321L133.5,48.216a4.321,4.321,0,0,0-.974-.231L127.944,43.4v5.728H114.669a9.67,9.67,0,0,0,1.01,1.1l6.683,6.688c-.186.127-.377.25-.569.371h6.15V71.1l5.255,5.255h2.9V57.289Z" transform="translate(-27.25 -33.575)" fill="url(#linear-gradient-8)"/>
    <path id="Path_18852" data-name="Path 18852" d="M173.376,89.905V114.25a2.876,2.876,0,0,1-2.875,2.877H157.239l-11.275-11.275a.526.526,0,0,1-.488-.5l-.068-1.622-2.953-2.927a.528.528,0,0,1-.038-.993,22.16,22.16,0,0,0,3.418-1.745H160.14V89.905Z" transform="translate(-51.437 -74.348)" fill="url(#linear-gradient-9)"/>
    <g id="Group_10182" data-name="Group 10182" transform="translate(83.591 6.107)">
      <g id="Group_10175" data-name="Group 10175" transform="translate(7.206 10.996)">
        <path id="Path_18853" data-name="Path 18853" d="M263.827,110.806a20.291,20.291,0,0,1-9.894-8.357l-4.5,5.728a20.385,20.385,0,0,0,10.621,8.643.53.53,0,0,0,.718-.472l.113-2.72a1.325,1.325,0,0,1,.928-1.209l1.979-.62A.528.528,0,0,0,263.827,110.806Z" transform="translate(-236.206 -102.449)" fill="url(#linear-gradient-10)"/>
        <path id="Path_18854" data-name="Path 18854" d="M142.418,110.806a20.291,20.291,0,0,0,9.894-8.357l4.5,5.728A20.385,20.385,0,0,1,146.2,116.82a.53.53,0,0,1-.718-.472l-.113-2.72a1.325,1.325,0,0,0-.928-1.209l-1.979-.62A.527.527,0,0,1,142.418,110.806Z" transform="translate(-142.088 -102.449)" fill="url(#linear-gradient-11)"/>
      </g>
      <path id="Path_18855" data-name="Path 18855" d="M225.558,110.806a20.291,20.291,0,0,1-9.894-8.357l-3.752,4.771-3.752-4.771a25.306,25.306,0,0,1-2.377,3.141h0l5.069,5.069c.361-.437.714-.894,1.06-1.378a20.1,20.1,0,0,0,9.868,7.538.53.53,0,0,0,.718-.472l.113-2.72a1.325,1.325,0,0,1,.928-1.209l1.979-.62a.528.528,0,0,0,.039-.992Z" transform="translate(-190.731 -91.453)" fill="url(#linear-gradient-12)"/>
      <g id="Group_10181" data-name="Group 10181" transform="translate(0 0)">
        <g id="Group_10179" data-name="Group 10179">
          <g id="Group_10176" data-name="Group 10176" transform="translate(21.181)">
            <path id="Path_18856" data-name="Path 18856" d="M255.86,23.935l2.919-5.574a9.646,9.646,0,0,1,8.584-5.171l6.577.027a2.785,2.785,0,0,1,2.326,4.3l-2.844,4.391a9.646,9.646,0,0,1-6.05,4.182L258.9,27.927A2.77,2.77,0,0,1,255.86,23.935Z" transform="translate(-255.537 -13.189)" fill="url(#linear-gradient-13)"/>
            <path id="Path_18857" data-name="Path 18857" d="M270.424,61.129A20.088,20.088,0,0,0,255.648,67.5,2.773,2.773,0,0,0,259,69.96l8.471-1.839a9.646,9.646,0,0,0,6.05-4.182l1.468-2.266a20.19,20.19,0,0,0-4.563-.544Z" transform="translate(-255.634 -55.223)" fill="url(#linear-gradient-14)"/>
          </g>
          <g id="Group_10178" data-name="Group 10178">
            <g id="Group_10177" data-name="Group 10177">
              <path id="Path_18858" data-name="Path 18858" d="M104.45,23.935,101.53,18.36a9.646,9.646,0,0,0-8.584-5.171l-6.577.027a2.785,2.785,0,0,0-2.326,4.3l2.844,4.391a9.646,9.646,0,0,0,6.05,4.182l8.471,1.839A2.77,2.77,0,0,0,104.45,23.935Z" transform="translate(-83.591 -13.189)" fill="url(#linear-gradient-15)"/>
              <path id="Path_18859" data-name="Path 18859" d="M103,61.129A20.088,20.088,0,0,1,117.772,67.5a2.773,2.773,0,0,1-3.35,2.462l-8.471-1.839a9.646,9.646,0,0,1-6.05-4.182l-1.468-2.266A20.191,20.191,0,0,1,103,61.129Z" transform="translate(-96.605 -55.223)" fill="url(#linear-gradient-16)"/>
            </g>
          </g>
        </g>
        <g id="Group_10180" data-name="Group 10180" transform="translate(16.853 8.272)">
          <path id="Path_18860" data-name="Path 18860" d="M229.054,84.61a4.329,4.329,0,1,1-4.39-4.266A4.328,4.328,0,0,1,229.054,84.61Z" transform="translate(-220.396 -80.343)" fill="url(#linear-gradient-17)"/>
          <path id="Path_18861" data-name="Path 18861" d="M233.434,89.717a3.613,3.613,0,1,1-3.664-3.56A3.612,3.612,0,0,1,233.434,89.717Z" transform="translate(-225.493 -85.44)" fill="url(#linear-gradient-18)"/>
          <path id="Path_18862" data-name="Path 18862" d="M230.055,83.828a4.33,4.33,0,0,1-5.725,5.89,4.329,4.329,0,1,0,5.725-5.89Z" transform="translate(-223.845 -83.399)" fill="url(#linear-gradient-19)"/>
        </g>
      </g>
    </g>
  </g>
</svg>
