<svg id="Open_AI" data-name="Open AI" xmlns="http://www.w3.org/2000/svg" width="135" height="47" viewBox="0 0 135 47">
  <rect id="Rectangle_4476" data-name="Rectangle 4476" width="135" height="47" fill="#4ca667"/>
  <g id="Group_42946" data-name="Group 42946" transform="translate(10.271 9.67)">
    <g id="Group_42940" data-name="Group 42940" transform="translate(0 0)">
      <path id="Path_10237" data-name="Path 10237" d="M35.6,39.754A7.11,7.11,0,0,0,27.36,30.6a7.107,7.107,0,0,0-12.04,2.543A7.11,7.11,0,0,0,11.5,44.855a7,7,0,0,0,.6,5.756,7.093,7.093,0,0,0,7.637,3.4,7.022,7.022,0,0,0,5.286,2.358,7.093,7.093,0,0,0,6.761-4.93A7.089,7.089,0,0,0,35.6,39.754ZM25.023,54.529a5.249,5.249,0,0,1-3.37-1.218l.164-.093,5.6-3.234a.94.94,0,0,0,.463-.8v-7.9l2.365,1.368a.082.082,0,0,1,.043.064v6.54a5.277,5.277,0,0,1-5.265,5.272ZM13.7,49.692a5.228,5.228,0,0,1-.627-3.534l.164.1,5.607,3.234a.907.907,0,0,0,.912,0L26.6,45.546v2.736a.088.088,0,0,1-.036.071L20.9,51.623A5.266,5.266,0,0,1,13.7,49.692ZM12.221,37.5a5.246,5.246,0,0,1,2.771-2.315v6.654a.884.884,0,0,0,.456.791l6.811,3.933-2.365,1.368a.091.091,0,0,1-.085,0l-5.664-3.263a5.28,5.28,0,0,1-1.931-7.2V37.5Zm19.456,4.517-6.839-3.968L27.2,36.683a.091.091,0,0,1,.085,0l5.664,3.27a5.266,5.266,0,0,1-.8,9.5V42.8a.946.946,0,0,0-.477-.784Zm2.351-3.541-.164-.1-5.593-3.263a.921.921,0,0,0-.919,0l-6.839,3.947V36.32a.072.072,0,0,1,.036-.071l5.664-3.263a5.271,5.271,0,0,1,7.83,5.457v.028ZM19.217,43.316l-2.365-1.361a.082.082,0,0,1-.043-.064V35.365a5.272,5.272,0,0,1,8.642-4.047l-.164.093-5.6,3.234a.94.94,0,0,0-.463.8ZM20.5,40.544l3.049-1.76,3.056,1.76v3.512l-3.042,1.76-3.056-1.76L20.5,40.544Z" transform="translate(-9.671 -28.243)" fill="#f2efe9" fill-rule="evenodd"/>
    </g>
    <g id="Group_42941" data-name="Group 42941" transform="translate(34.264 1.178)">
      <path id="Path_10238" data-name="Path 10238" d="M78.892,35.07a1.863,1.863,0,0,0-1.76.842l-.164.3v-.995H75.58v6.056h1.454v-3.6a1.2,1.2,0,0,1,1.279-1.356,1.162,1.162,0,0,1,1.224,1.323v3.64h1.454V37.387A2.015,2.015,0,0,0,78.892,35.07Z" transform="translate(-53.629 -32.895)" fill="#f2efe9" fill-rule="evenodd"/>
      <path id="Path_10239" data-name="Path 10239" d="M75.077,38.721V37.715a2.5,2.5,0,0,0-2.689-2.645,2.592,2.592,0,0,0-2.788,2.8v.853a2.554,2.554,0,0,0,2.809,2.689,2.634,2.634,0,0,0,2.481-1.3l-.907-.514a2.039,2.039,0,0,1-1.574.82,1.314,1.314,0,0,1-1.4-1.454v-.24ZM71.01,37.6c0-.995.492-1.541,1.377-1.541a1.3,1.3,0,0,1,1.366,1.454v.241H71.01Z" transform="translate(-54.187 -32.895)" fill="#f2efe9" fill-rule="evenodd"/>
      <path id="Path_10240" data-name="Path 10240" d="M94.209,34.389V33.23H89.17v1.159h1.771v5.892H89.17V41.44h5.039V40.281H92.438V34.389Z" transform="translate(-52.363 -33.066)" fill="#f2efe9" fill-rule="evenodd"/>
      <path id="Path_10241" data-name="Path 10241" d="M59.151,33.08A3.391,3.391,0,0,0,55.5,36.742v1.224a3.651,3.651,0,1,0,7.3,0V36.742A3.391,3.391,0,0,0,59.151,33.08Zm0,7.324c-1.366,0-2.143-.864-2.143-2.361V36.655c0-1.5.776-2.361,2.143-2.361s2.143.864,2.143,2.361v1.388C61.294,39.541,60.518,40.4,59.151,40.4Z" transform="translate(-55.5 -33.08)" fill="#f2efe9" fill-rule="evenodd"/>
      <path id="Path_10242" data-name="Path 10242" d="M66.642,35.07h0a2.062,2.062,0,0,0-1.771.853l-.153.24v-.951H63.33v8.133h1.454V40.4l.153.23a2.046,2.046,0,0,0,1.716.776,2.453,2.453,0,0,0,2.525-2.656V37.726A2.463,2.463,0,0,0,66.642,35.07Zm1.082,3.618a1.429,1.429,0,0,1-1.487,1.585,1.446,1.446,0,0,1-1.454-1.552v-.907a1.464,1.464,0,0,1,1.465-1.585,1.421,1.421,0,0,1,1.476,1.585Z" transform="translate(-54.771 -32.895)" fill="#f2efe9" fill-rule="evenodd"/>
      <path id="Path_10243" data-name="Path 10243" d="M86.065,33.23H84.491l-2.941,8.2h1.476l.558-1.76h3.378l.011.022.558,1.738h1.476Zm-2.121,5.291,1.323-4.154,1.312,4.143Z" transform="translate(-53.073 -33.066)" fill="#f2efe9" fill-rule="evenodd"/>
    </g>
    <g id="Group_42944" data-name="Group 42944" transform="translate(34.361 13.854)">
      <g id="Group_42942" data-name="Group 42942" transform="translate(0 0)">
        <path id="Path_10244" data-name="Path 10244" d="M64.42,57.415a4.538,4.538,0,0,1-3.154,1.051,4.271,4.271,0,0,1-2.418-.688,4.5,4.5,0,0,1-1.615-1.94,6.868,6.868,0,0,1-.573-2.9V51.414a6.868,6.868,0,0,1,.573-2.9,4.322,4.322,0,0,1,4.109-2.628,4.988,4.988,0,0,1,2.246.468,3.722,3.722,0,0,1,1.51,1.367,4.962,4.962,0,0,1,.678,2.16H64.745c-.268-2.074-1.4-3.115-3.4-3.115a3.3,3.3,0,0,0-1.94.573,3.713,3.713,0,0,0-1.261,1.615,6.182,6.182,0,0,0-.44,2.427v1.548a6.522,6.522,0,0,0,.421,2.408,3.69,3.69,0,0,0,1.223,1.653,3.174,3.174,0,0,0,1.93.593,3.444,3.444,0,0,0,2.427-.774,3.716,3.716,0,0,0,1.032-2.341h1.032A4.374,4.374,0,0,1,64.42,57.415Z" transform="translate(-56.66 -45.374)" fill="#f2efe9"/>
        <path id="Path_10245" data-name="Path 10245" d="M73.5,49.8a3.64,3.64,0,0,1,.745,2.542v5.925H73.228V52.345a2.719,2.719,0,0,0-.545-1.911,2.136,2.136,0,0,0-1.6-.564,2.412,2.412,0,0,0-1.682.621,3.636,3.636,0,0,0-1.023,1.539v6.25H67.37V45.35h1.013v5.342a3.705,3.705,0,0,1,1.252-1.242A3.336,3.336,0,0,1,71.346,49,2.79,2.79,0,0,1,73.5,49.8Z" transform="translate(-57.135 -45.35)" fill="#f2efe9"/>
        <path id="Path_10246" data-name="Path 10246" d="M82.671,57.532a2.941,2.941,0,0,0,.21.8v.105H81.8a4.7,4.7,0,0,1-.2-1.271,3.727,3.727,0,0,1-1.281,1.042,3.886,3.886,0,0,1-1.8.4,3.409,3.409,0,0,1-1.539-.334,2.422,2.422,0,0,1-1.4-2.246,2.453,2.453,0,0,1,.5-1.539,3.231,3.231,0,0,1,1.433-1,6.185,6.185,0,0,1,2.208-.354h1.854V52.113a1.96,1.96,0,0,0-.612-1.539,2.488,2.488,0,0,0-1.739-.564,3.114,3.114,0,0,0-1.252.248,2.177,2.177,0,0,0-.879.669,1.51,1.51,0,0,0-.315.927l-1.013-.01a2.186,2.186,0,0,1,.449-1.3,3.17,3.17,0,0,1,1.242-.994,4.521,4.521,0,0,1,3.526-.048,2.583,2.583,0,0,1,1.166.994,3.009,3.009,0,0,1,.421,1.634v4.4C82.595,56.863,82.624,57.2,82.671,57.532Zm-2.208-.315a2.869,2.869,0,0,0,1.128-1.29V53.92h-1.72a5.588,5.588,0,0,0-1.758.239,2.451,2.451,0,0,0-1.128.7,1.639,1.639,0,0,0-.392,1.089,1.693,1.693,0,0,0,.248.9,1.8,1.8,0,0,0,.717.64,2.4,2.4,0,0,0,1.08.239A3.419,3.419,0,0,0,80.464,57.217Z" transform="translate(-57.499 -45.519)" fill="#f2efe9"/>
        <path id="Path_10247" data-name="Path 10247" d="M88.091,58.368a2.2,2.2,0,0,1-.478.1,4.245,4.245,0,0,1-.6.038,1.917,1.917,0,0,1-1.462-.545,2.643,2.643,0,0,1-.516-1.844V50.054H83.37v-.822h1.663V46.9h1.013v2.341h1.873v.822H86.046v6.059a1.706,1.706,0,0,0,.315,1.195,1.162,1.162,0,0,0,.86.315,4.5,4.5,0,0,0,.822-.1Z" transform="translate(-57.844 -45.419)" fill="#f2efe9"/>
        <path id="Path_10248" data-name="Path 10248" d="M97.4,57.567A4.824,4.824,0,0,1,96,58.2a7.334,7.334,0,0,1-2.064.258,4.769,4.769,0,0,1-2.552-.688,4.639,4.639,0,0,1-1.739-1.959,6.712,6.712,0,0,1-.621-2.953V51.365a6.9,6.9,0,0,1,.573-2.915,4.365,4.365,0,0,1,1.644-1.911,4.627,4.627,0,0,1,2.523-.669,5.148,5.148,0,0,1,2.265.459A3.57,3.57,0,0,1,97.5,47.609a4.355,4.355,0,0,1,.669,1.873H97.134a3.062,3.062,0,0,0-3.373-2.733,3.448,3.448,0,0,0-2.007.573,3.552,3.552,0,0,0-1.261,1.606,6.293,6.293,0,0,0-.43,2.427v1.51a6.1,6.1,0,0,0,.478,2.485A3.767,3.767,0,0,0,91.9,57a3.559,3.559,0,0,0,2.036.583,6.125,6.125,0,0,0,1.529-.172A4.33,4.33,0,0,0,96.541,57a2.337,2.337,0,0,0,.621-.487V53.353H93.875v-.879h4.31v4.358A3.468,3.468,0,0,1,97.4,57.567Z" transform="translate(-58.095 -45.373)" fill="#f2efe9"/>
        <path id="Path_10249" data-name="Path 10249" d="M106.9,46.509a3.193,3.193,0,0,1,1.4,1.281,4.156,4.156,0,0,1,.01,3.851,3.092,3.092,0,0,1-1.4,1.233,5.335,5.335,0,0,1-2.255.43h-3.135v4.989H100.49V46.05h4.176A4.961,4.961,0,0,1,106.9,46.509Zm.076,5.18a2.62,2.62,0,0,0,.765-1.959,2.956,2.956,0,0,0-.325-1.4,2.411,2.411,0,0,0-1.023-1,3.634,3.634,0,0,0-1.739-.373h-3.135v5.5h3.135A3.242,3.242,0,0,0,106.979,51.688Z" transform="translate(-58.603 -45.381)" fill="#f2efe9"/>
        <path id="Path_10250" data-name="Path 10250" d="M118.633,46.939h-4.2V58.3h-1.023V46.939h-4.2V46.06h9.413Z" transform="translate(-58.991 -45.381)" fill="#f2efe9"/>
      </g>
      <g id="Group_42943" data-name="Group 42943" transform="translate(60.551 0.516)">
        <path id="Path_10251" data-name="Path 10251" d="M128.975,55.664h-1.347v2.628h-2.542V55.664h-4.941l-.124-1.606,5.055-8.008h2.552v7.569h1.347Zm-3.88-2.036V49.5l-.172.3L122.5,53.628h2.59Z" transform="translate(-120.02 -45.897)" fill="#f2efe9"/>
        <path id="Path_10252" data-name="Path 10252" d="M131.939,56.322a1.188,1.188,0,0,1,.507.487,1.388,1.388,0,0,1,.172.688,1.414,1.414,0,0,1-.172.688,1.31,1.31,0,0,1-.507.487,1.7,1.7,0,0,1-1.491,0,1.165,1.165,0,0,1-.5-.487,1.367,1.367,0,0,1-.182-.688,1.324,1.324,0,0,1,.182-.688,1.351,1.351,0,0,1,.5-.487,1.461,1.461,0,0,1,.745-.182A1.716,1.716,0,0,1,131.939,56.322Z" transform="translate(-120.452 -46.344)" fill="#f2efe9"/>
        <path id="Path_10253" data-name="Path 10253" d="M141.416,56.182a3.655,3.655,0,0,1-1.443,1.72,4.654,4.654,0,0,1-4.406,0,3.743,3.743,0,0,1-1.462-1.72,7.228,7.228,0,0,1-.526-2.934V51.079a7.22,7.22,0,0,1,.516-2.924,3.6,3.6,0,0,1,1.453-1.711,4.3,4.3,0,0,1,2.208-.554,4.232,4.232,0,0,1,2.208.554,3.639,3.639,0,0,1,1.453,1.711,7.22,7.22,0,0,1,.516,2.924v2.169A7.3,7.3,0,0,1,141.416,56.182Zm-2.437-7.607a1.476,1.476,0,0,0-2.446,0,4.217,4.217,0,0,0-.411,2.16v2.848a4.161,4.161,0,0,0,.421,2.179,1.364,1.364,0,0,0,1.233.659,1.333,1.333,0,0,0,1.214-.659,4.395,4.395,0,0,0,.4-2.179V50.735A4.192,4.192,0,0,0,138.979,48.575Z" transform="translate(-120.621 -45.89)" fill="#f2efe9"/>
      </g>
    </g>
  </g>
</svg>
